<svg width="300" height="100" viewBox="0 0 300 100" fill="none" xmlns="http://www.w3.org/2000/svg">
<g clip-path="url(#clip0_137_14)">
<path d="M284 0H16C7.16344 0 0 7.16344 0 16V84C0 92.8366 7.16344 100 16 100H284C292.837 100 300 92.8366 300 84V16C300 7.16344 292.837 0 284 0Z" fill="white"/>
<path d="M149.945 20C164.976 20.0001 174.701 49.7215 179.142 67.3275C180.801 73.9012 175.725 80 168.945 80C162.189 80 158.905 60 149.945 60C140.985 60 139.692 80 130.945 80C124.165 80 119.089 73.9012 120.748 67.3275C125.189 49.7215 134.913 19.9999 149.945 20Z" fill="url(#paint0_linear_137_14)"/>
</g>
<defs>
<linearGradient id="paint0_linear_137_14" x1="149.945" y1="20" x2="149.945" y2="80" gradientUnits="userSpaceOnUse">
<stop stop-color="white"/>
<stop offset="1" stop-color="#003399"/>
</linearGradient>
<clipPath id="clip0_137_14">
<rect width="300" height="100" fill="white"/>
</clipPath>
</defs>
</svg>
